<svg xmlns="http://www.w3.org/2000/svg" version="1.1" xmlns:xlink="http://www.w3.org/1999/xlink" width="1985" height="1000"><svg width="1985" height="1000" viewBox="0 0 1985 1000" fill="none" xmlns="http://www.w3.org/2000/svg">
<path d="M897.779 2.02502C826.446 11.7584 752.579 56.025 683.112 130.692C654.179 161.892 625.646 190.292 607.779 206.158C540.179 265.892 461.246 310.425 377.112 336.558C340.446 347.892 318.446 356.158 284.446 371.492C206.312 406.825 122.845 460.958 37.7788 531.758C28.5788 539.358 22.3122 545.225 23.7788 544.825C25.2455 544.425 30.7122 542.692 35.7788 541.092C48.7122 536.958 83.2455 536.558 96.4455 540.425C116.845 546.292 140.179 560.292 152.312 574.158C173.245 597.625 181.512 619.358 180.046 647.092C178.312 681.625 165.645 707.092 111.112 784.558C60.8455 856.158 42.5788 886.158 24.5788 926.958C13.3788 952.158 -1.82117 997.225 0.178826 999.092C0.978826 1000.03 464.446 1000.16 464.446 999.358C464.446 999.092 460.446 992.958 455.646 985.625C444.579 969.092 433.646 946.825 428.979 931.225C425.912 920.958 425.379 916.692 425.246 901.225C425.112 884.425 425.379 882.425 429.112 871.892L433.112 860.558L485.112 860.958C513.779 861.225 586.579 861.892 647.112 862.558C707.646 863.358 781.246 863.892 810.579 863.892C851.779 863.892 864.446 864.292 865.379 865.492C866.579 867.092 910.046 980.558 914.712 994.158L916.712 999.892H981.512C1017.25 999.892 1096.85 998.958 1158.45 997.892C1220.05 996.825 1283.51 995.892 1299.51 995.892C1315.38 995.892 1328.45 995.492 1328.45 994.825C1328.31 994.292 1325.25 991.492 1321.38 988.558C1310.05 979.758 1254.98 924.292 1242.85 909.225C1211.25 870.292 1191.11 831.092 1185.78 798.158C1182.05 775.225 1186.05 748.825 1196.05 728.692C1200.18 720.558 1208.45 707.892 1209.78 707.892C1210.31 707.892 1213.38 711.625 1216.58 716.158C1237.38 745.892 1278.98 790.825 1304.45 811.092C1350.85 848.025 1404.18 873.225 1460.18 884.558C1490.31 890.692 1510.98 892.292 1550.45 891.492C1592.85 890.558 1614.58 887.892 1638.31 880.692C1813.11 826.958 1920.85 716.158 1965.11 544.292C1975.65 503.492 1984.45 446.692 1984.45 419.092V405.092L1975.78 414.825C1950.18 443.892 1916.45 467.092 1883.78 478.292C1865.51 484.558 1853.65 486.692 1832.98 487.492C1788.58 489.225 1748.45 476.692 1704.45 447.225C1619.91 390.825 1554.18 281.892 1535.25 167.625C1532.05 147.758 1529.78 126.692 1529.78 115.092C1529.78 110.425 1529.51 106.558 1529.25 106.558C1528.98 106.558 1523.38 108.958 1516.85 112.025C1444.71 145.492 1378.45 152.292 1303.25 133.892C1265.25 124.558 1227.25 109.092 1149.11 70.9583C1092.18 43.0917 1072.45 34.1583 1045.91 24.025C991.646 3.35834 942.446 -3.97498 897.779 2.02502ZM1510.71 402.825C1539.11 435.892 1572.85 475.092 1585.51 489.758L1608.45 516.558L1602.85 519.092C1599.78 520.425 1591.51 522.692 1584.58 524.158C1569.78 527.225 1546.85 526.825 1533.11 523.225C1487.78 511.225 1454.85 477.358 1443.51 430.825C1440.05 416.425 1440.58 390.425 1444.85 374.425C1447.65 363.758 1456.58 342.558 1458.31 342.558C1458.58 342.558 1482.18 369.625 1510.71 402.825Z" fill="#3388FF"></path>
</svg><style>@media (prefers-color-scheme: light) { :root { filter: none; } }
@media (prefers-color-scheme: dark) { :root { filter: none; } }
</style></svg>